<?xml version="1.0" encoding="UTF-8"?>
<svg width="842px" height="124px" viewBox="0 0 842 124" version="1.1" xmlns="http://www.w3.org/2000/svg" xmlns:xlink="http://www.w3.org/1999/xlink">
    <title>mongoose_logo</title>
    <defs>
        <path d="M720.221277,0.149455 C737.882227,0.149455 751.622614,15.4791175 751.622614,32.798005 L751.622614,32.798005 L751.622614,37.723705 L725.278539,37.723705 L725.278539,32.798005 C725.278539,28.87218 721.736877,26.0251675 718.326777,26.0251675 L718.326777,26.0251675 L692.401071,26.0251675 C688.569971,26.0251675 685.170396,28.7011487 685.023046,32.798005 C685.023046,54.4716112 683.973177,54.5794925 688.609439,53.5348862 L688.609439,53.5348862 L712.001252,48.19608 C718.245208,47.0304362 723.839246,46.9935987 730.898889,49.9090237 C754.853789,59.7893675 751.622614,82.6996612 751.622614,90.9091612 C751.622614,108.951642 736.466614,123.552449 718.118908,123.552449 L718.118908,123.552449 L692.190571,123.552449 C674.682233,123.552449 658.681602,110.401461 658.681602,89.8803425 L658.681602,89.8803425 L685.023046,89.8803425 C685.023046,95.7111925 689.138321,97.8898675 692.190571,97.8898675 L692.190571,97.8898675 L718.118908,97.8898675 C721.900014,97.8898675 725.278539,94.6139612 725.278539,90.9091612 L725.278539,90.9091612 L725.278539,79.8184425 C725.278539,77.9739362 724.652302,76.42413 723.486658,75.2321737 C719.942364,71.6299925 719.076683,72.44568 696.440039,78.3475737 C674.990089,83.9679237 658.736858,69.382905 658.681602,51.0746675 C658.667687,46.0678001 658.6783,44.1084237 658.681014,36.4344085 L658.681602,33.0032425 C658.810533,14.3845175 674.269127,0.149455 692.401071,0.149455 L692.401071,0.149455 Z M612.224515,0.14892875 C631.227403,0.2936475 645.528246,15.4312287 645.528246,32.80011 L645.528246,32.80011 L645.528246,91.077035 C645.528246,109.108991 630.430134,123.551922 612.224515,123.551922 L612.224515,123.551922 L588.203834,123.551922 C569.971903,123.551922 554.900103,108.837972 554.900103,91.077035 L554.900103,91.077035 L554.900103,32.80011 C554.900103,15.0102287 570.040315,0.14892875 588.203834,0.14892875 L588.203834,0.14892875 Z M508.449331,0.14892875 C527.491687,0.2936475 541.753062,15.4680662 541.753062,32.80011 L541.753062,32.80011 L541.753062,91.077035 C541.753062,108.993216 526.765462,123.551922 508.449331,123.551922 L508.449331,123.551922 L484.428649,123.551922 C466.280918,123.551922 451.130181,108.927435 451.130181,91.077035 L451.130181,91.077035 L451.130181,32.80011 C451.130181,15.002335 466.267762,0.14892875 484.428649,0.14892875 L484.428649,0.14892875 Z M404.470751,0.15103375 C422.934232,0.15103375 437.979719,14.8702462 437.979719,32.591715 L437.979719,32.591715 L437.979719,41.2169525 L411.633013,41.42219 L411.633013,32.591715 C411.633013,28.7869275 408.651807,25.6110087 404.470751,25.6110087 L404.470751,25.6110087 L380.865807,25.6110087 C376.961032,25.6110087 373.911413,28.6895712 373.911413,32.591715 L373.911413,32.591715 L373.911413,91.0765087 C373.911413,94.878665 377.084701,97.888815 380.865807,97.888815 L380.865807,97.888815 L404.470751,97.888815 C408.309744,97.888815 411.633013,95.3759712 411.633013,91.4869837 L411.633013,91.4869837 L411.633013,84.7141462 L392.666963,89.2293712 L392.666963,62.6432212 L437.979719,51.5182962 L437.979719,91.2817462 C437.979719,109.16109 422.831613,123.551396 404.470751,123.551396 L404.470751,123.551396 L380.865807,123.551396 C362.602301,123.551396 347.775207,109.047946 347.775207,91.0765087 L347.775207,91.0765087 L347.775207,32.591715 C347.775207,14.7150025 362.562832,0.15103375 380.865807,0.15103375 L380.865807,0.15103375 Z M612.224515,26.0246412 L588.203834,26.0246412 C584.380628,26.0246412 581.244178,29.0821537 581.244178,32.80011 L581.244178,32.80011 L581.244178,91.077035 C581.244178,94.8607725 584.404309,97.8893412 588.203834,97.8893412 L588.203834,97.8893412 L612.224515,97.8893412 C616.026671,97.8893412 619.18154,94.8581412 619.18154,91.077035 L619.18154,91.077035 L619.18154,32.80011 C619.18154,29.0663662 616.031934,26.0246412 612.224515,26.0246412 L612.224515,26.0246412 Z M508.449331,26.0246412 L484.428649,26.0246412 C480.615968,26.0246412 477.471624,29.0768912 477.471624,32.80011 L477.471624,32.80011 L477.471624,91.077035 C477.471624,94.8397225 480.608074,97.8893412 484.428649,97.8893412 L484.428649,97.8893412 L508.449331,97.8893412 C512.280431,97.8893412 515.408987,94.8397225 515.408987,91.077035 L515.408987,91.077035 L515.408987,32.80011 C515.408987,29.084785 512.277799,26.0246412 508.449331,26.0246412 L508.449331,26.0246412 Z M842,0.151296875 L842,25.6112719 L798.282044,25.6112719 C794.132563,25.6112719 791.117151,28.7477219 791.117151,32.5919781 L791.117151,32.5919781 L791.117151,58.9781531 L829.893882,48.8846781 L829.893882,75.6418594 L791.117151,85.5353594 L791.117151,90.8741656 C791.185563,94.8368281 794.422001,97.6838406 798.282044,97.6838406 L798.282044,97.6838406 L842,97.6838406 L842,123.551659 L798.282044,123.551659 C779.844876,123.551659 764.773076,109.100834 764.773076,90.8741656 L764.773076,90.8741656 L764.773076,32.5919781 C764.773076,14.6968469 779.587013,0.151296875 798.282044,0.151296875 L798.282044,0.151296875 L842,0.151296875 Z M197.13325,0.14892875 C216.096669,0.29101625 230.43435,15.3943912 230.43435,32.80011 L230.43435,32.80011 L230.43435,91.077035 C230.43435,108.966904 215.480956,123.551922 197.13325,123.551922 L197.13325,123.551922 L173.109938,123.551922 C154.904319,123.551922 139.808838,108.859022 139.808838,91.077035 L139.808838,91.077035 L139.808838,32.80011 C139.808838,15.086535 154.880638,0.14892875 173.109938,0.14892875 L173.109938,0.14892875 Z M0.000789375047,0.14998125 C45.9713581,0.14998125 51.7837894,-1.60769375 63.4349644,6.92545 C73.7231519,-0.89725625 83.4587769,0.14998125 93.1523019,0.14998125 C111.899958,0.2894375 126.511289,14.6113312 126.658639,32.7985312 L126.658639,32.7985312 L126.658639,123.550344 L100.317196,123.550344 L100.317196,32.7985312 C100.243521,29.1305687 97.4122956,26.0888437 93.1523019,26.0230625 L93.1523019,26.0230625 L83.6692769,26.0230625 C81.0748644,26.0230625 78.8751394,27.3281625 77.5200456,29.4121125 C75.8929333,31.918536 76.4769918,31.3975506 76.501005,75.5195252 L76.5017519,78.2770562 L50.1576769,84.6762562 C50.1576769,30.5093437 50.8023331,31.9670562 49.1393831,29.4121125 C48.4710456,28.3832937 47.6290456,27.5623437 46.5397081,26.9466312 C44.0163394,25.5099687 42.4981081,26.0230625 26.3448644,26.0230625 L26.3448644,26.0230625 L26.3448644,123.550344 L0.000789375047,123.550344 Z M301.537566,0.14998125 C319.987891,0.2894375 334.625535,15.3086125 334.625535,32.7985312 L334.625535,32.7985312 L334.625535,123.550344 L308.28146,123.550344 L308.28146,32.7985312 C308.28146,29.1568812 305.394979,25.8151937 301.537566,25.8151937 L301.537566,25.8151937 L269.925729,25.8151937 L269.925729,123.550344 L243.581654,123.550344 L243.581654,0.14998125 Z M197.13325,26.0246412 L173.109938,26.0246412 C169.265681,26.0246412 166.152913,29.1032037 166.152913,32.80011 L166.152913,32.80011 L166.152913,91.077035 C166.152913,94.8923475 169.349881,97.8893412 173.109938,97.8893412 L173.109938,97.8893412 L197.13325,97.8893412 C200.888044,97.8893412 204.090275,94.9002412 204.090275,91.077035 L204.090275,91.077035 L204.090275,32.80011 C204.090275,29.09531 200.96435,26.0246412 197.13325,26.0246412 L197.13325,26.0246412 Z" id="path-1"></path>
        <filter x="-0.6%" y="-3.2%" width="101.2%" height="108.0%" filterUnits="objectBoundingBox" id="filter-2">
            <feOffset dx="0" dy="1" in="SourceAlpha" result="shadowOffsetOuter1"></feOffset>
            <feGaussianBlur stdDeviation="1.5" in="shadowOffsetOuter1" result="shadowBlurOuter1"></feGaussianBlur>
            <feColorMatrix values="0 0 0 0 0.905882353   0 0 0 0 0.17254902   0 0 0 0 0.235294118  0 0 0 0.244919143 0" type="matrix" in="shadowBlurOuter1"></feColorMatrix>
        </filter>
        <filter x="-0.9%" y="-5.3%" width="101.8%" height="112.0%" filterUnits="objectBoundingBox" id="filter-3">
            <feGaussianBlur stdDeviation="4" in="SourceAlpha" result="shadowBlurInner1"></feGaussianBlur>
            <feOffset dx="0" dy="1" in="shadowBlurInner1" result="shadowOffsetInner1"></feOffset>
            <feComposite in="shadowOffsetInner1" in2="SourceAlpha" operator="arithmetic" k2="-1" k3="1" result="shadowInnerInner1"></feComposite>
            <feColorMatrix values="0 0 0 0 0.635294118   0 0 0 0 0.0117647059   0 0 0 0 0.0274509804  0 0 0 0.39881993 0" type="matrix" in="shadowInnerInner1" result="shadowMatrixInner1"></feColorMatrix>
            <feGaussianBlur stdDeviation="0.5" in="SourceAlpha" result="shadowBlurInner2"></feGaussianBlur>
            <feOffset dx="0" dy="1" in="shadowBlurInner2" result="shadowOffsetInner2"></feOffset>
            <feComposite in="shadowOffsetInner2" in2="SourceAlpha" operator="arithmetic" k2="-1" k3="1" result="shadowInnerInner2"></feComposite>
            <feColorMatrix values="0 0 0 0 0.450980392   0 0 0 0 0   0 0 0 0 0  0 0 0 0.0647126311 0" type="matrix" in="shadowInnerInner2" result="shadowMatrixInner2"></feColorMatrix>
            <feMerge>
                <feMergeNode in="shadowMatrixInner1"></feMergeNode>
                <feMergeNode in="shadowMatrixInner2"></feMergeNode>
            </feMerge>
        </filter>
    </defs>
    <g id="Page-1" stroke="none" stroke-width="1" fill="none" fill-rule="evenodd">
        <g id="mongoose">
            <use fill="black" fill-opacity="1" filter="url(#filter-2)" xlink:href="#path-1"></use>
            <use fill="#AB0509" fill-rule="evenodd" xlink:href="#path-1"></use>
            <use fill="black" fill-opacity="1" filter="url(#filter-3)" xlink:href="#path-1"></use>
        </g>
    </g>
</svg>